<svg width="18.562500" height="18.562500" viewBox="0 0 18.5625 18.5625" fill="none" xmlns="http://www.w3.org/2000/svg" xmlns:xlink="http://www.w3.org/1999/xlink">
	<desc>
			Created with Pixso.
	</desc>
	<defs/>
	<path id="Vector" d="M9.28125 0C7.44531 0 5.65137 0.543945 4.125 1.56445C2.59863 2.58398 1.40918 4.0332 0.706055 5.72949C0.00390625 7.42578 -0.179688 9.29199 0.178711 11.0918C0.536133 12.8926 1.4209 14.5459 2.71875 15.8438C4.0166 17.1426 5.66992 18.0264 7.4707 18.3838C9.27051 18.7422 11.1367 18.5586 12.833 17.8564C14.5293 17.1533 15.9785 15.9639 16.998 14.4375C18.0186 12.9111 18.5625 11.1172 18.5625 9.28125C18.5596 6.82031 17.5811 4.46094 15.8408 2.72168C14.1016 0.981445 11.7422 0.00292969 9.28125 0ZM7.48242 13.0625L11.0801 13.0625C10.6904 14.25 10.0801 15.3535 9.28125 16.3154C8.48242 15.3535 7.87207 14.25 7.48242 13.0625ZM6.99609 11C6.83496 9.85938 6.83496 8.70312 6.99609 7.5625L11.5664 7.5625C11.7275 8.70312 11.7275 9.85938 11.5664 11L6.99609 11ZM2.0625 9.28125C2.0625 8.70215 2.13281 8.125 2.27148 7.5625L4.91699 7.5625C4.77734 8.7041 4.77734 9.8584 4.91699 11L2.27148 11C2.13281 10.4375 2.0625 9.86035 2.0625 9.28125ZM11.0801 5.5L7.48242 5.5C7.87207 4.3125 8.48242 3.20898 9.28125 2.24707C10.0801 3.20898 10.6904 4.3125 11.0801 5.5ZM13.6455 7.5625L16.291 7.5625C16.5693 8.69141 16.5693 9.87109 16.291 11L13.6455 11C13.7852 9.8584 13.7852 8.7041 13.6455 7.5625ZM15.4277 5.5L13.2344 5.5C12.9551 4.49121 12.5518 3.52051 12.0352 2.61035C13.4414 3.19434 14.6279 4.20508 15.4277 5.5ZM6.53125 2.61035C6.01367 3.52051 5.60938 4.49121 5.32812 5.5L3.13477 5.5C3.93555 4.2041 5.12402 3.19336 6.53125 2.61035ZM3.13477 13.0625L5.32812 13.0625C5.60938 14.0713 6.01367 15.042 6.53125 15.9521C5.12402 15.3691 3.93555 14.3584 3.13477 13.0625ZM12.0352 15.9521C12.5518 15.042 12.9551 14.0713 13.2344 13.0625L15.4277 13.0625C14.6279 14.3574 13.4414 15.3682 12.0352 15.9521Z" fill="#20A6E5" fill-opacity="1.000000" fill-rule="nonzero"/>
</svg>
